<?xml version="1.0" standalone="no"?>
<!DOCTYPE svg PUBLIC "-//W3C//DTD SVG 20010904//EN"
 "http://www.w3.org/TR/2001/REC-SVG-20010904/DTD/svg10.dtd">
<svg version="1.0" xmlns="http://www.w3.org/2000/svg"
 width="494.000000pt" height="490.000000pt" viewBox="0 0 494.000000 490.000000"
 preserveAspectRatio="xMidYMid meet">
<g transform="translate(0.000000,490.000000) scale(0.100000,-0.100000)"
fill="#ffffff" stroke="none">
<path d="M2705 4883 c-189 -16 -366 -51 -533 -105 l-124 -40 -177 2 c-173 1
-313 -10 -418 -31 l-53 -10 39 -47 c43 -51 113 -162 109 -173 -2 -4 -40 -34
-84 -67 -118 -87 -245 -203 -330 -300 -41 -47 -73 -86 -71 -88 2 -2 54 19 115
47 109 48 455 169 485 169 8 0 35 -35 60 -77 92 -159 309 -425 320 -393 3 8
17 58 32 110 36 132 104 295 166 400 44 75 57 89 83 94 138 25 754 64 779 50
9 -5 9 -4 1 5 -18 20 -264 122 -412 171 l-144 47 59 45 c86 66 176 118 278
160 l90 37 -115 -1 c-63 -1 -133 -3 -155 -5z"/>
<path d="M3950 4385 c0 -62 -20 -178 -32 -191 -3 -2 -45 14 -94 37 -165 77
-462 163 -634 184 -64 8 -66 11 60 -82 53 -38 129 -99 170 -134 94 -79 319
-298 331 -321 8 -14 -2 -36 -42 -95 -68 -102 -148 -206 -247 -323 -45 -52 -80
-96 -78 -97 1 -2 58 9 126 22 144 30 390 62 505 67 l80 3 55 -77 c89 -124 214
-326 302 -485 45 -81 85 -152 90 -158 27 -29 -22 521 -59 673 -5 21 -3 22 23
17 75 -17 187 -59 237 -89 l56 -34 -35 69 c-87 174 -191 314 -334 454 -51 50
-102 99 -114 111 -12 11 -45 65 -74 120 -59 112 -150 242 -234 335 l-57 64 -1
-70z"/>
<path d="M825 4311 c-277 -245 -520 -593 -654 -935 -45 -115 -104 -322 -115
-401 l-7 -50 39 70 c56 101 86 148 164 254 l70 93 40 -78 c22 -44 63 -115 91
-158 l52 -80 7 115 c8 133 23 247 49 379 l19 95 82 79 c70 66 229 198 353 294
l30 23 -83 -6 c-45 -3 -121 -12 -168 -21 -48 -8 -88 -13 -90 -12 -11 11 147
311 203 386 14 18 23 35 21 37 -2 2 -49 -36 -103 -84z"/>
<path d="M2037 3733 c-3 -4 -19 -71 -35 -148 -37 -168 -69 -389 -78 -540 -4
-60 -10 -116 -14 -123 -4 -8 -97 -51 -207 -96 -185 -77 -448 -194 -483 -216
-8 -5 -11 -12 -8 -16 13 -12 382 -160 546 -219 133 -47 163 -62 167 -79 2 -12
9 -77 15 -146 14 -155 61 -438 98 -590 l28 -115 43 75 c97 166 180 303 279
458 89 140 108 163 126 159 11 -3 118 -29 236 -60 186 -47 508 -120 635 -143
l40 -7 -119 124 c-122 127 -325 357 -430 487 -55 68 -59 76 -46 95 30 49 276
383 398 542 72 94 127 171 122 173 -21 8 -543 -131 -793 -211 l-108 -35 -123
186 c-68 103 -158 246 -201 317 -89 149 -82 139 -88 128z"/>
<path d="M457 2941 c-65 -110 -150 -288 -187 -397 l-31 -91 -55 -23 c-31 -12
-82 -40 -115 -62 -49 -33 -59 -44 -54 -62 13 -45 76 -163 114 -215 l41 -55 0
-110 c0 -61 5 -151 11 -201 12 -97 57 -285 84 -350 l17 -40 24 83 c27 92 59
173 111 275 l34 69 32 -25 c136 -102 388 -267 409 -267 5 0 -2 19 -16 43 -44
75 -107 228 -162 391 l-53 159 32 41 c101 128 350 375 484 482 16 13 5 14 -92
9 -150 -8 -300 -23 -419 -40 -55 -8 -101 -14 -102 -12 -7 7 -34 210 -45 337
-6 74 -12 136 -13 137 -1 2 -24 -33 -49 -76z"/>
<path d="M4511 2624 c-49 -132 -159 -389 -236 -556 l-68 -147 -46 -8 c-61 -10
-499 -10 -625 0 -65 6 -97 5 -95 -2 2 -5 57 -69 123 -141 106 -118 222 -229
330 -317 l39 -32 -28 -48 c-47 -80 -214 -334 -262 -396 -25 -32 -44 -60 -42
-62 7 -6 154 36 249 72 115 43 251 110 343 169 37 24 72 44 77 44 12 0 152
-136 174 -170 20 -30 22 -27 66 76 34 83 73 234 90 349 11 72 18 89 72 170
106 158 196 361 238 537 27 113 26 117 -18 61 -21 -26 -63 -67 -93 -89 -61
-47 -167 -109 -174 -102 -3 3 -10 65 -15 139 -10 128 -43 410 -58 500 l-7 42
-34 -89z"/>
<path d="M910 1445 c0 -24 116 -296 185 -433 l82 -164 -25 -9 c-106 -40 -190
-54 -334 -54 l-147 0 27 -23 c61 -52 199 -136 282 -172 108 -47 220 -83 363
-114 l108 -25 70 -75 c128 -137 276 -242 421 -300 98 -38 100 -37 73 37 -21
56 -34 122 -50 248 l-6 46 213 6 c117 4 239 10 271 13 l57 7 -95 43 c-52 23
-171 82 -265 130 l-170 88 0 50 c0 76 27 299 61 500 16 98 28 180 27 182 -2 1
-39 -29 -83 -67 -110 -96 -292 -235 -399 -303 l-88 -58 -47 33 c-115 81 -245
182 -355 274 -167 140 -176 147 -176 140z"/>
<path d="M3558 862 c-55 -82 -197 -252 -297 -354 l-104 -108 -161 0 c-147 0
-332 11 -446 26 l-45 6 40 -36 c66 -60 196 -156 252 -188 29 -16 50 -34 47
-39 -10 -17 -187 -102 -274 -131 l-85 -29 140 5 c374 13 778 137 1125 346 113
68 294 201 375 275 l50 46 -95 -50 c-52 -27 -140 -66 -194 -86 -109 -40 -293
-91 -301 -83 -3 3 0 29 5 59 13 65 14 359 2 371 -5 5 -20 -8 -34 -30z"/>
</g>
</svg>