<?xml version="1.0" encoding="UTF-8"?>
<svg version="1.1" xmlns="http://www.w3.org/2000/svg" width="768" height="768">
<path d="M0 0 C2.20797361 2.20797361 2.59757579 3.41458345 3.47265625 6.359375 C3.73240234 7.22820312 3.99214844 8.09703125 4.25976562 8.9921875 C4.52466797 9.90226563 4.78957031 10.81234375 5.0625 11.75 C5.33126953 12.64460937 5.60003906 13.53921875 5.87695312 14.4609375 C6.61774955 16.96597479 7.31429178 19.47942932 8 22 C8.30679688 23.04929688 8.61359375 24.09859375 8.9296875 25.1796875 C9.03184263 29.27724308 7.16202813 32.01134719 5.0625 35.375 C4.21594473 36.80954616 3.37226008 38.24578967 2.53125 39.68359375 C2.10328125 40.40788574 1.6753125 41.13217773 1.234375 41.87841797 C-34.5803001 103.4348908 -41.43524458 181.49996526 -23.60693359 249.70141602 C-7.86557696 306.85016462 25.51197732 361.66688198 73 398 C73.56734863 398.44375977 74.13469727 398.88751953 74.71923828 399.34472656 C133.75506437 445.50596727 209.29086853 467.32363649 283.875 458.8125 C333.5636045 452.41385793 380.92017949 434.17856465 421 404 C421.5770166 403.56719727 422.1540332 403.13439453 422.74853516 402.68847656 C431.65555882 395.96461916 439.97531557 388.75150368 448 381 C448.93126709 380.101604 448.93126709 380.101604 449.88134766 379.18505859 C457.7900708 371.51389409 465.26320386 363.74030428 472 355 C472.79664063 353.99710938 473.59328125 352.99421875 474.4140625 351.9609375 C521.28754962 292.63226059 541.46098502 216.83833219 533 142 C528.21028052 104.36477918 516.34391245 68.39394366 497.54150391 35.4440918 C497.09468262 34.6581665 496.64786133 33.87224121 496.1875 33.0625 C495.78917969 32.37285156 495.39085937 31.68320313 494.98046875 30.97265625 C493.06009766 27.10896143 492.78441937 24.77360438 494.14453125 20.6640625 C494.54188477 19.43816406 494.54188477 19.43816406 494.94726562 18.1875 C495.23279297 17.341875 495.51832031 16.49625 495.8125 15.625 C496.08642578 14.78710938 496.36035156 13.94921875 496.64257812 13.0859375 C497.41807996 10.72037794 498.20668335 8.3596352 499 6 C499.39574219 4.81148437 499.79148437 3.62296875 500.19921875 2.3984375 C500.46347656 1.60695312 500.72773437 0.81546875 501 0 C505.29322008 3.98041716 508.47605489 8.3058719 511.6875 13.1875 C512.21077881 13.98067627 512.73405762 14.77385254 513.27319336 15.59106445 C558.96367214 85.74497264 572.94596833 171.47409065 556 253 C541.34610983 317.51100888 506.11974377 379.30386506 455 422 C454.47229004 422.44682129 453.94458008 422.89364258 453.40087891 423.35400391 C438.34287113 436.06755267 422.21159428 447.38337568 405 457 C404.19175781 457.45197754 403.38351562 457.90395508 402.55078125 458.36962891 C356.24088978 483.97858846 304.87790119 497.20846806 252 497.25 C251.21820374 497.25067474 250.43640747 497.25134949 249.63092041 497.25204468 C174.46288064 497.15010318 98.81666663 469.6834546 43.44140625 418.2578125 C41.35311578 416.32656147 39.22908466 414.4668194 37.0625 412.625 C28.71282078 405.33614068 21.08639491 397.43788012 14.19921875 388.7578125 C11.92463583 385.9054936 9.56130007 383.14506241 7.1875 380.375 C-4.01655421 366.90242786 -13.32736766 352.19738379 -22 337 C-22.43554199 336.24025879 -22.87108398 335.48051758 -23.31982422 334.69775391 C-46.8708733 293.14613366 -60.04025272 243.73363771 -61 196 C-61.02046387 195.20352051 -61.04092773 194.40704102 -61.06201172 193.58642578 C-62.57581211 127.41708456 -43.90912885 51.48499967 0 0 Z " fill="#ffffffff" transform="translate(133,223)"/>
<path d="M0 0 C35.31 0 70.62 0 107 0 C107.08060607 33.25895946 107.08060607 33.25895946 107.09765625 47.31835938 C107.10947097 56.98236237 107.12327271 66.64633021 107.15087891 76.31030273 C107.17098473 83.3520887 107.18375662 90.39384583 107.18817699 97.43565971 C107.19075568 101.15481729 107.19669658 104.87389247 107.21146011 108.5930233 C107.2888583 128.88947325 107.17580689 149.14039347 102.8125 169.0625 C102.59601807 170.06015381 102.37953613 171.05780762 102.15649414 172.08569336 C96.47429357 197.16994626 85.48241799 220.20291928 69 240 C67.88625 241.35158203 67.88625 241.35158203 66.75 242.73046875 C62.54818405 247.6298518 58.00690691 251.93507049 53 256 C51.58074219 257.15822266 51.58074219 257.15822266 50.1328125 258.33984375 C41.21987244 265.45436415 41.21987244 265.45436415 36.109375 268.078125 C25.94074268 273.32970916 22.2039264 278.61983569 17.83984375 289.09765625 C4.84016742 318.54343474 -26.59392063 339.45089893 -55.375 350.875 C-81.77684152 361 -81.77684152 361 -93 361 C-92.93831124 372.8935396 -92.86087142 384.78686838 -92.76428509 396.68017864 C-92.71989215 402.20498332 -92.68057109 407.72971948 -92.65356445 413.25463867 C-92.62721698 418.60406118 -92.58660286 423.95321545 -92.53681374 429.30246925 C-92.52035447 431.32536245 -92.50871187 433.3483018 -92.50238609 435.37125206 C-92.35975389 476.85997464 -81.96148119 515.85855969 -52.12890625 545.93359375 C-34.70622453 562.9108836 -12.41008815 573.25805203 12 574 C12 574.66 12 575.32 12 576 C10.07568359 577.37280273 10.07568359 577.37280273 7.3984375 578.93359375 C6.43292969 579.50013672 5.46742188 580.06667969 4.47265625 580.65039062 C3.45042969 581.24013672 2.42820312 581.82988281 1.375 582.4375 C0.37597656 583.02337891 -0.62304688 583.60925781 -1.65234375 584.21289062 C-3.5854019 585.34072124 -5.52493967 586.45753469 -7.47143555 587.56201172 C-9.41471899 588.66715216 -11.33564678 589.81167464 -13.24609375 590.97265625 C-22.94925492 594.59241708 -40.01777451 587.14288979 -48.91894531 583.13623047 C-58.04466877 578.78548763 -66.16159825 573.40192697 -74 567 C-75.20076172 566.02933594 -75.20076172 566.02933594 -76.42578125 565.0390625 C-82.40943551 559.97517547 -87.21851378 554.18932059 -92 548 C-92.64582031 547.20464844 -93.29164063 546.40929687 -93.95703125 545.58984375 C-109.10070515 526.12821802 -118.43374466 501.28590414 -122 477 C-122.25861061 475.30919312 -122.25861061 475.30919312 -122.52244568 473.58422852 C-123.22470457 467.87882105 -123.13133504 462.17376477 -123.11352539 456.43359375 C-123.11367142 455.19372208 -123.11381744 453.9538504 -123.1139679 452.67640686 C-123.11339322 449.29886478 -123.10839987 445.92138485 -123.10139394 442.54385376 C-123.09511572 439.00580023 -123.09455308 435.46774574 -123.09336853 431.9296875 C-123.09026834 425.2398698 -123.08207273 418.55006857 -123.07201904 411.8602581 C-123.06081704 404.23990547 -123.05533718 396.61955202 -123.05032361 388.99919319 C-123.03988894 373.33278595 -123.02231504 357.6663951 -123 342 C-122.22758469 341.8609726 -121.45516937 341.72194519 -120.65934753 341.57870483 C-117.11981898 340.93928069 -113.58139987 340.29390579 -110.04296875 339.6484375 C-108.82798706 339.42986084 -107.61300537 339.21128418 -106.36120605 338.98608398 C-73.16894538 332.90823222 -40.70407802 316.56908159 -20.81518555 288.43041992 C-13.91854256 278.14661257 -8.78599384 267.27787952 -5.1875 255.4375 C-4.99244873 254.80215332 -4.79739746 254.16680664 -4.59643555 253.51220703 C-0.54732467 239.21975656 -0.69488271 224.736309 -0.68115234 210.02197266 C-0.67183944 207.72436679 -0.66166877 205.42676426 -0.65071106 203.12916565 C-0.62355056 196.92978625 -0.60830323 190.73042939 -0.59528303 184.53100634 C-0.57959112 178.03809065 -0.55282037 171.5452206 -0.5272522 165.05233765 C-0.48586603 154.16674131 -0.45124157 143.28114297 -0.421875 132.39550781 C-0.391627 121.19008583 -0.35722606 109.98468902 -0.31738281 98.77929688 C-0.3149013 98.07997063 -0.3124198 97.38064439 -0.30986309 96.66012645 C-0.28823717 90.5756871 -0.26629956 84.49124888 -0.24433136 78.40681076 C-0.15037049 52.27123565 -0.07685764 26.13564396 0 0 Z M33 16 C32.97494385 22.74783936 32.9498877 29.49567871 32.92407227 36.44799805 C32.84309914 58.07440267 32.7574502 79.70078671 32.66888306 101.32716153 C32.6551146 104.69019413 32.64138733 108.0532269 32.62768555 111.41625977 C32.62495724 112.08573805 32.62222894 112.75521634 32.61941796 113.44498185 C32.57542406 124.26438885 32.53476261 135.08380591 32.49534739 145.90323045 C32.4547852 157.0169803 32.41053732 168.13071185 32.36312145 179.24443465 C32.33662592 185.48175924 32.31177612 191.71908039 32.29092598 197.95642662 C32.27122546 203.83406509 32.24704321 209.71166853 32.21950912 215.58927536 C32.21020925 217.73979742 32.20250921 219.89032713 32.19658089 222.04086113 C32.1661947 232.73920469 32.09089181 243.34676447 31 254 C31.48895752 253.5781543 31.97791504 253.15630859 32.48168945 252.72167969 C35.10370665 250.4595472 37.71173064 248.22019942 40.46484375 246.1171875 C44.98516384 242.3421282 48.39615142 237.63085206 52 233 C52.61230469 232.2265625 53.22460938 231.453125 53.85546875 230.65625 C74.52342056 203.0359208 75.47779091 169.08758756 75.30418181 136.0769701 C75.28517969 131.84232381 75.28364634 127.60766819 75.28010559 123.37298584 C75.27085318 115.38729091 75.24633359 107.40172205 75.21605712 99.41608214 C75.18229866 90.31060996 75.1659737 81.20513114 75.15097082 72.09961176 C75.1197763 53.3996556 75.06485159 34.69987182 75 16 C61.14 16 47.28 16 33 16 Z " fill="#ffffffff" transform="translate(517,48)"/>
<path d="M0 0 C34.98 0 69.96 0 106 0 C106.04898438 16.4175 106.09796875 32.835 106.1484375 49.75 C106.18382829 60.1588594 106.21971103 70.56771326 106.2578125 80.9765625 C106.2778065 86.44693962 106.29770172 91.91731706 106.31738281 97.38769531 C106.31985425 98.07323038 106.32232569 98.75876544 106.32487202 99.4650743 C106.36449093 110.50363611 106.39727733 121.54220803 106.42749982 132.5807991 C106.458716 143.92623192 106.49751233 155.27161734 106.54279006 166.61700439 C106.56795687 172.98241972 106.58976681 179.34780536 106.60334396 185.71325684 C106.61625382 191.71487263 106.63840295 197.71638607 106.66738319 203.7179451 C106.67638965 205.91074129 106.68213282 208.10355394 106.68421364 210.29636765 C106.72580401 247.4956432 115.08402123 278.50112318 142.02099609 305.4597168 C148.36921891 311.55264128 155.54353224 316.3725444 163 321 C163.59087402 321.37108887 164.18174805 321.74217773 164.79052734 322.12451172 C180.38871889 331.72237767 198.99294229 337.22968343 217 340 C221.33333333 340.66666667 225.66666667 341.33333333 230 342 C230.04707322 356.48378133 230.08215952 370.96755231 230.10362434 385.45139503 C230.11386322 392.1790507 230.12803782 398.9066513 230.15087891 405.63427734 C230.17283884 412.14417394 230.1846167 418.65402106 230.18975449 425.16395187 C230.19340917 427.62984367 230.20054374 430.0957332 230.21146011 432.56160355 C230.29126548 451.3608874 230.36071583 470.68108375 225.875 489.0625 C225.66254639 489.95549805 225.45009277 490.84849609 225.23120117 491.76855469 C216.74519144 525.68878158 197.53408475 557.13497609 167.6875 576.125 C157.29473007 582.33873114 146.69827369 586.89464008 135 590 C134.00871094 590.35449219 133.01742187 590.70898438 131.99609375 591.07421875 C124.95721407 593.06092681 120.59062748 591.73425256 114.30297852 588.44165039 C107.58693159 584.66942274 101.20704669 580.55908416 95 576 C95.33 575.34 95.66 574.68 96 574 C98.23046875 573.7265625 98.23046875 573.7265625 101.1875 573.625 C119.63536947 572.29797165 137.00715738 563.80898857 151 552 C151.87140625 551.2678125 152.7428125 550.535625 153.640625 549.78125 C180.89941773 526.03432627 194.88527246 492.62701376 198 457 C198.14804162 453.72180632 198.1834979 450.44698794 198.20532227 447.16577148 C198.21522186 446.22811447 198.22512146 445.29045746 198.23532104 444.3243866 C198.26665047 441.2566471 198.2915793 438.18889216 198.31640625 435.12109375 C198.33700051 432.9816093 198.35799759 430.8421287 198.37937927 428.70265198 C198.43434483 423.09515512 198.48386574 417.48762311 198.53222656 411.88006592 C198.5826289 406.14852807 198.6382168 400.41704073 198.69335938 394.68554688 C198.80062845 383.45707448 198.90214171 372.22855808 199 361 C197.97587509 360.79920837 196.95175018 360.59841675 195.89659119 360.39154053 C194.53643034 360.12277084 193.1762883 359.85390594 191.81616211 359.58496094 C190.8065958 359.38741714 190.8065958 359.38741714 189.77663422 359.18588257 C184.59629015 358.15860153 179.58036052 356.88547585 174.5625 355.25 C173.76811523 354.99395996 172.97373047 354.73791992 172.15527344 354.47412109 C138.47246622 343.32937096 106.56147334 322.62626221 89 291 C88.30586501 289.55372064 87.62646695 288.10028863 86.9609375 286.640625 C82.0123131 275.93756796 77.32005847 271.41392602 66.92871094 266.06884766 C40.43220811 251.38508951 21.60629072 222.5265903 11 195 C10.57074219 193.89011719 10.14148438 192.78023437 9.69921875 191.63671875 C2.84487734 172.5591555 -0.16897258 152.67943813 -0.11352539 132.48413086 C-0.11324286 131.03454592 -0.11340255 129.58496083 -0.1139679 128.13537598 C-0.11425328 124.2248639 -0.10839855 120.31438287 -0.10139394 116.40387797 C-0.09511716 112.30795498 -0.09455319 108.21203118 -0.09336853 104.11610413 C-0.09026792 96.37092498 -0.08207174 88.62576006 -0.07201904 80.88058716 C-0.05872154 70.40672966 -0.05334773 59.93286823 -0.04751682 49.4590044 C-0.03813093 32.97265897 -0.01820354 16.48634352 0 0 Z M31 16 C30.93199396 35.45565673 30.8768512 54.91121561 30.84456348 74.36696148 C30.82916602 83.40280636 30.80821468 92.43857155 30.77368164 101.47436523 C30.74355911 109.35995491 30.72437343 117.2454868 30.71773452 125.13113242 C30.71386049 129.29745734 30.70490929 133.46361713 30.68280983 137.62988853 C30.47992346 177.47030551 34.58339447 214.33607172 63.71704102 244.02734375 C68.75592231 249.12157267 68.75592231 249.12157267 74 254 C74.33 254 74.66 254 75 254 C74.93019456 253.24637114 74.86038912 252.49274227 74.78846836 251.71627617 C73.85439841 240.42557533 73.82608936 229.17066843 73.79467773 217.84814453 C73.78508131 215.63920923 73.77507024 213.4302757 73.76467896 211.22134399 C73.73781483 205.26369677 73.71670601 199.30604177 73.69667697 193.34836817 C73.67470235 187.10770942 73.64737018 180.86707411 73.62062073 174.62643433 C73.57649275 164.16454087 73.53563205 153.70263892 73.49731445 143.24072266 C73.45786349 132.47183288 73.41641479 121.70295381 73.37231445 110.93408203 C73.36959018 110.26867315 73.36686591 109.60326427 73.36405908 108.91769148 C73.35037803 105.57904827 73.33665594 102.24040523 73.32291877 98.90176225 C73.20933588 71.26786244 73.1031538 43.63394084 73 16 C59.14 16 45.28 16 31 16 Z " fill="#ffffffff" transform="translate(145,48)"/>
<path d="M0 0 C0 6.93 0 13.86 0 21 C-4.97300905 19.34233032 -9.92916163 17.68784604 -14.87109375 15.94921875 C-37.14621328 8.22722265 -59.54668819 2.61231452 -83 0 C-84.20003662 -0.14139404 -84.20003662 -0.14139404 -85.42431641 -0.28564453 C-94.09887494 -1.20350904 -102.78681504 -1.2434658 -111.5 -1.25 C-112.31302582 -1.25067474 -113.12605164 -1.25134949 -113.9637146 -1.25204468 C-150.68981522 -1.20396034 -186.70048663 5.74554766 -220.7109375 19.71484375 C-224 21 -224 21 -226 21 C-226 14.07 -226 7.14 -226 0 C-207.1959488 -6.6213291 -188.6368821 -12.30542369 -169 -16 C-168.1332666 -16.16580566 -167.2665332 -16.33161133 -166.37353516 -16.50244141 C-110.48751359 -26.88143324 -52.98315398 -19.35922934 0 0 Z " fill="#ffffffff" transform="translate(497,117)"/>
<path d="M0 0 C3.93065515 4.97882986 4.12347797 10.2345342 4.16113281 16.39160156 C4.17074036 17.66352356 4.1803479 18.93544556 4.19024658 20.24591064 C4.19509586 21.62748026 4.19937437 23.00905197 4.203125 24.390625 C4.20595238 25.09192284 4.20877975 25.79322067 4.21169281 26.51576996 C4.22665078 30.22845329 4.23590112 33.94109813 4.24023438 37.65380859 C4.24570814 41.46770798 4.26972242 45.28124841 4.29820633 49.09503555 C4.3169335 52.04635613 4.32204367 54.99759204 4.32357025 57.94896698 C4.32657559 59.35383817 4.33453153 60.75870864 4.34775543 62.16352081 C4.48208554 77.53299456 4.48208554 77.53299456 1 84 C-3.52705422 87.71450603 -8.13674262 88.29800429 -13.90625 88.22265625 C-18.09168093 87.77756378 -21.57946499 86.13642801 -24.875 83.5 C-27.51525489 79.97966014 -27.13855362 76.25414452 -27.16113281 72.03759766 C-27.16609772 71.33318039 -27.17106262 70.62876312 -27.17617798 69.90299988 C-27.1907794 67.57334414 -27.19759802 65.24375648 -27.203125 62.9140625 C-27.20887789 61.29365029 -27.21463561 59.6732381 -27.22039795 58.05282593 C-27.23090203 54.65500573 -27.23674865 51.25720915 -27.24023438 47.859375 C-27.24571945 43.50920453 -27.26975007 39.159347 -27.29820633 34.80927467 C-27.31684528 31.46179293 -27.32203896 28.1143864 -27.32357025 24.76685715 C-27.32659422 23.16330631 -27.33461415 21.55975671 -27.34775543 19.95625687 C-27.3648435 17.71099385 -27.36292941 15.46649337 -27.35644531 13.22119141 C-27.36191376 11.30616318 -27.36191376 11.30616318 -27.36749268 9.35244751 C-26.87551522 4.86438905 -25.38671334 2.25251528 -22.0625 -0.75 C-15.27449284 -4.86394374 -6.60321646 -3.82986555 0 0 Z M-16 8 C-17.08266462 11.24799387 -17.13992611 13.642443 -17.16113281 17.06030273 C-17.17074036 18.30847275 -17.1803479 19.55664276 -17.19024658 20.84263611 C-17.19509399 22.2062868 -17.19937296 23.56993961 -17.203125 24.93359375 C-17.20887844 26.33219911 -17.21463615 27.73080446 -17.22039795 29.12940979 C-17.23089735 32.06064216 -17.23674724 34.99184718 -17.24023438 37.9230957 C-17.24572315 41.67701266 -17.26976337 45.43056765 -17.29820633 49.18437099 C-17.31683761 52.07287145 -17.32203851 54.96128469 -17.32357025 57.84984016 C-17.3265952 59.23372442 -17.33461849 60.61760721 -17.34775543 62.00143242 C-17.36482741 63.93764943 -17.36108919 65.87401603 -17.35644531 67.81030273 C-17.36009094 68.91155991 -17.36373657 70.01281708 -17.36749268 71.14744568 C-16.95509803 74.34853843 -16.26542823 75.73096278 -14 78 C-11.45709375 78.58350505 -11.45709375 78.58350505 -9 78 C-6.63472166 74.45208248 -6.74708704 72.94648472 -6.74121094 68.74023438 C-6.73490662 67.44879517 -6.72860229 66.15735596 -6.72210693 64.82678223 C-6.72568672 63.4157701 -6.72978868 62.00475921 -6.734375 60.59375 C-6.73302777 59.14790786 -6.73108675 57.70206617 -6.72857666 56.25622559 C-6.72562813 53.22659999 -6.72991427 50.19709235 -6.73925781 47.16748047 C-6.75065228 43.28349162 -6.74409135 39.39977918 -6.73211288 35.51580048 C-6.72488693 32.53039466 -6.72718558 29.5450544 -6.73236847 26.55964661 C-6.73370293 25.1275072 -6.73206434 23.69536184 -6.72740936 22.26322937 C-6.72233237 20.26207594 -6.73144214 18.26090165 -6.74121094 16.25976562 C-6.74280212 15.12075806 -6.74439331 13.98175049 -6.74603271 12.80822754 C-6.79344464 9.79253764 -6.79344464 9.79253764 -9 7 C-11.80561762 6.71943824 -13.46578263 6.73289132 -16 8 Z " fill="#ffffffff" transform="translate(377,160)"/>
<path d="M0 0 C5.94 0 11.88 0 18 0 C19.85066937 14.54591529 21.09767833 29.12735995 22.28710938 43.74023438 C22.56885198 47.19964057 22.85746524 50.65843591 23.1478672 54.11712456 C23.42827329 57.47097196 23.70203774 60.82535359 23.9765625 64.1796875 C24.07965729 65.40388397 24.18275208 66.62808044 24.28897095 67.88937378 C24.85655974 74.95368435 25.09777997 81.91281828 25 89 C21.37 89 17.74 89 14 89 C13.67 83.06 13.34 77.12 13 71 C10.03 71 7.06 71 4 71 C4.01160156 71.6290625 4.02320313 72.258125 4.03515625 72.90625 C4.09286873 78.38069088 3.80228473 83.58457806 3 89 C-0.63 89 -4.26 89 -8 89 C-7.10947353 77.69075971 -6.21448761 66.38188213 -5.31375217 55.07345009 C-4.89567946 49.82290158 -4.4791639 44.57223908 -4.06616211 39.32128906 C-3.66779233 34.25709556 -3.26539097 29.19323732 -2.86015129 24.12958908 C-2.70599641 22.19434452 -2.55331291 20.25898218 -2.40210152 18.3235054 C-2.19062293 15.61980654 -1.97399166 12.91656769 -1.75610352 10.21337891 C-1.69424362 9.40705521 -1.63238373 8.60073151 -1.56864929 7.76997375 C-1.11405216 2.22810432 -1.11405216 2.22810432 0 0 Z M8 14 C7.56944245 19.71061299 7.14230336 25.42146783 6.71826172 31.13256836 C6.57368233 33.07339295 6.42818649 35.01414951 6.28173828 36.95483398 C6.07080092 39.75226524 5.86321433 42.54992859 5.65625 45.34765625 C5.55781799 46.63870018 5.55781799 46.63870018 5.45739746 47.95582581 C5.11347742 52.65303887 4.93331312 57.29023887 5 62 C7.31 62 9.62 62 12 62 C12.25236782 51.4718223 11.46116054 41.16027939 10.5 30.6875 C10.35494619 29.06059338 10.21041165 27.43364038 10.06640625 25.80664062 C9.71690554 21.87053479 9.36043961 17.93511858 9 14 C8.67 14 8.34 14 8 14 Z " fill="#ffffffff" transform="translate(431,158)"/>
<path d="M0 0 C3.56489205 2.34761184 5.20085046 3.60255139 6.5625 7.6875 C6.64516486 9.60656917 6.66990663 11.52839474 6.66015625 13.44921875 C6.65693359 14.56748047 6.65371094 15.68574219 6.65039062 16.83789062 C6.64201172 18.00513672 6.63363281 19.17238281 6.625 20.375 C6.62048828 21.55384766 6.61597656 22.73269531 6.61132812 23.94726562 C6.59953273 26.86072789 6.5830727 29.77408863 6.5625 32.6875 C3.2625 32.6875 -0.0375 32.6875 -3.4375 32.6875 C-3.49808594 31.19476563 -3.55867188 29.70203125 -3.62109375 28.1640625 C-3.70549173 26.21353138 -3.7901401 24.26301108 -3.875 22.3125 C-3.91431641 21.32765625 -3.95363281 20.3428125 -3.99414062 19.328125 C-4.03603516 18.38710937 -4.07792969 17.44609375 -4.12109375 16.4765625 C-4.15775146 15.60725098 -4.19440918 14.73793945 -4.23217773 13.84228516 C-4.31151544 11.6391738 -4.31151544 11.6391738 -5.4375 9.6875 C-7.0875 9.6875 -8.7375 9.6875 -10.4375 9.6875 C-12.49791957 13.09200493 -12.69037898 15.73054495 -12.69628906 19.67773438 C-12.70259338 20.88578735 -12.70889771 22.09384033 -12.71539307 23.33850098 C-12.7113446 24.63960815 -12.70729614 25.94071533 -12.703125 27.28125 C-12.70447292 28.63358632 -12.70641451 29.98592217 -12.70892334 31.33825684 C-12.71186865 34.16939925 -12.70759614 37.00041527 -12.69824219 39.83154297 C-12.68684788 43.45645967 -12.69341054 47.08108018 -12.70538712 50.70598602 C-12.7126218 53.49756086 -12.71031042 56.28906573 -12.70513153 59.0806427 C-12.70315273 61.0659301 -12.70921577 63.05122025 -12.71539307 65.03649902 C-12.70908875 66.244552 -12.70278442 67.45260498 -12.69628906 68.69726562 C-12.69469788 69.75997681 -12.69310669 70.82268799 -12.69146729 71.91760254 C-12.43797565 74.68231228 -11.86235916 76.33315426 -10.4375 78.6875 C-8.4575 78.6875 -6.4775 78.6875 -4.4375 78.6875 C-4.1075 70.4375 -3.7775 62.1875 -3.4375 53.6875 C-0.1375 53.6875 3.1625 53.6875 6.5625 53.6875 C6.6497253 58.08320794 6.70296869 62.47869271 6.75 66.875 C6.77513672 68.12087891 6.80027344 69.36675781 6.82617188 70.65039062 C6.83583984 71.85244141 6.84550781 73.05449219 6.85546875 74.29296875 C6.8711792 75.39793701 6.88688965 76.50290527 6.90307617 77.64135742 C6.42246769 81.93996101 4.80712691 84.56332085 1.625 87.4375 C-2.73818175 90.08185258 -7.41931225 90.22115056 -12.4375 89.6875 C-16.33394898 88.56649781 -19.95176129 87.00181828 -22.4375 83.6875 C-23.60250818 80.19247547 -23.57883226 77.42987042 -23.59863281 73.7409668 C-23.60359772 73.03815582 -23.60856262 72.33534485 -23.61367798 71.61123657 C-23.62828124 69.28638732 -23.63509887 66.96160633 -23.640625 64.63671875 C-23.6463784 63.01870217 -23.65213611 61.40068561 -23.65789795 59.78266907 C-23.66840301 56.38904503 -23.67424877 52.99544465 -23.67773438 49.60180664 C-23.68321505 45.26070219 -23.70723588 40.91991204 -23.73570633 36.57890606 C-23.75436348 33.23567299 -23.75953996 29.89251512 -23.76107025 26.54923439 C-23.76409087 24.94930111 -23.77209945 23.34936897 -23.78525543 21.74948692 C-23.80237917 19.50682298 -23.80042057 17.26492024 -23.79394531 15.0222168 C-23.79759094 13.74775192 -23.80123657 12.47328705 -23.80499268 11.16020203 C-23.3995907 7.32926779 -22.47880081 4.93910401 -20.4375 1.6875 C-14.05688099 -2.21900144 -6.98634978 -2.66751537 0 0 Z " fill="#ffffffff" transform="translate(335.4375,158.3125)"/>
<path d="M0 0 C18 0 18 0 26 3 C29.3969816 7.57185855 29.44221804 11.99291524 29.3984375 17.46875 C29.40130768 18.26728394 29.40417786 19.06581787 29.40713501 19.8885498 C29.40916783 21.56942457 29.40369289 23.25032342 29.39111328 24.93115234 C29.37504765 27.49240411 29.39098778 30.0520781 29.41015625 32.61328125 C29.40817368 34.25260762 29.40432971 35.89193302 29.3984375 37.53125 C29.40754654 38.67055969 29.40754654 38.67055969 29.4168396 39.83288574 C29.35438602 44.59425591 28.66175735 47.89849787 26 52 C22 55 22 55 10 55 C10 66.22 10 77.44 10 89 C6.7 89 3.4 89 0 89 C0 59.63 0 30.26 0 0 Z M10 10 C10 21.88 10 33.76 10 46 C16.4 45.8 16.4 45.8 18 44 C18.08843793 41.55169574 18.11528752 39.13179401 18.09765625 36.68359375 C18.0962413 35.95253922 18.09482635 35.22148468 18.09336853 34.46827698 C18.08775408 32.12464368 18.07519922 29.78110461 18.0625 27.4375 C18.05748686 25.85221492 18.05292363 24.26692834 18.04882812 22.68164062 C18.03777997 18.7877239 18.02050572 14.89387795 18 11 C15.47825081 9.5527864 15.47825081 9.5527864 10 10 Z " fill="#ffffffff" transform="translate(390,158)"/>
<path d="M0 0 C6.27 0 12.54 0 19 0 C24 5 24 5 24.59936523 7.99853516 C24.57918335 9.62734619 24.57918335 9.62734619 24.55859375 11.2890625 C24.55150391 12.47757812 24.54441406 13.66609375 24.53710938 14.890625 C24.50423828 16.12296875 24.47136719 17.3553125 24.4375 18.625 C24.43169922 19.86507813 24.42589844 21.10515625 24.41992188 22.3828125 C24.29527132 31.55709301 24.29527132 31.55709301 22 35 C21.34 35 20.68 35 20 35 C20.18175781 35.82725586 20.36351562 36.65451172 20.55078125 37.50683594 C21.22499891 40.58489888 21.89548632 43.66374418 22.56347656 46.74316406 C22.85300499 48.07421759 23.14400563 49.40495179 23.43652344 50.73535156 C23.8574155 52.65083994 24.27252713 54.56759557 24.6875 56.484375 C24.93886719 57.63647461 25.19023437 58.78857422 25.44921875 59.97558594 C26 63 26 63 26 67 C22.37 67 18.74 67 15 67 C13.68 60.07 12.36 53.14 11 46 C10.67 52.93 10.34 59.86 10 67 C6.7 67 3.4 67 0 67 C0 44.89 0 22.78 0 0 Z M10 9 C10 15.93 10 22.86 10 30 C11.32 29.67 12.64 29.34 14 29 C14 22.4 14 15.8 14 9 C12.68 9 11.36 9 10 9 Z " fill="#ffffffff" transform="translate(341,280)"/>
<path d="M0 0 C3.3 0 6.6 0 10 0 C10.48062124 2.68724704 10.95953496 5.37478033 11.4375 8.0625 C11.57220703 8.81466797 11.70691406 9.56683594 11.84570312 10.34179688 C12.47510069 13.88791487 13.06875088 17.42457864 13.53515625 20.99609375 C13.6778177 23.87470248 13.6778177 23.87470248 15 25 C16.98 12.625 16.98 12.625 19 0 C22.3 0 25.6 0 29 0 C27.78483643 9.26708385 26.18091259 18.3738624 24.34112549 27.53710938 C21.71881071 40.69587145 20.03029197 53.55036544 20 67 C16.37 67 12.74 67 9 67 C8.96241577 65.33203369 8.96241577 65.33203369 8.92407227 63.63037109 C8.50579258 50.66730907 6.47769254 38.32269345 3.9375 25.625 C3.36945685 22.73770884 2.80516237 19.84975935 2.2457428 16.96078491 C1.90083906 15.18447068 1.55058359 13.40918421 1.19407654 11.63516235 C1.03713821 10.83597382 0.88019989 10.03678528 0.71850586 9.21337891 C0.57940292 8.51789948 0.44029999 7.82242004 0.29698181 7.10586548 C0 5 0 5 0 0 Z " fill="#ffffffff" transform="translate(400,280)"/>
<path d="M0 0 C6.6 0 13.2 0 20 0 C20 2.97 20 5.94 20 9 C16.7 9 13.4 9 10 9 C10 14.61 10 20.22 10 26 C12.64 26 15.28 26 18 26 C18 28.97 18 31.94 18 35 C15.36 35 12.72 35 10 35 C10 42.59 10 50.18 10 58 C13.63 58 17.26 58 21 58 C21 60.97 21 63.94 21 67 C14.07 67 7.14 67 0 67 C0 44.89 0 22.78 0 0 Z " fill="#ffffffff" transform="translate(373,280)"/>
<path d="M0 0 C4.62 0 9.24 0 14 0 C14 0.99 14 1.98 14 3 C13.01 3.495 13.01 3.495 12 4 C12 5.32 12 6.64 12 8 C12.66 8.33 13.32 8.66 14 9 C14 10.32 14 11.64 14 13 C9.38 13 4.76 13 0 13 C0 8.71 0 4.42 0 0 Z " fill="#ffffffff" transform="translate(379,257)"/>
<path d="M0 0 C10.625 -0.25 10.625 -0.25 14 2 C15.22184602 5.22916448 15.19214112 6.55504162 13.8125 9.75 C12 12 12 12 10.3125 12.8125 C6.86449226 13.09206819 3.45930464 13.05765508 0 13 C0 8.71 0 4.42 0 0 Z M4 3 C4 4.98 4 6.96 4 9 C6.41619823 9.25030977 6.41619823 9.25030977 9 9 C9.66 8.01 10.32 7.02 11 6 C9.7511573 4.4166747 9.7511573 4.4166747 8 3 C6.68 3 5.36 3 4 3 Z " fill="#ffffffff" transform="translate(360,257)"/>
<path d="M0 0 C1.32 0 2.64 0 4 0 C4 2.97 4 5.94 4 9 C6.97 9 9.94 9 13 9 C13 10.32 13 11.64 13 13 C8.71 13 4.42 13 0 13 C0 8.71 0 4.42 0 0 Z " fill="#ffffffff" transform="translate(398,257)"/>
</svg>

