<?xml version="1.0" standalone="no"?>
<!DOCTYPE svg PUBLIC "-//W3C//DTD SVG 20010904//EN"
 "http://www.w3.org/TR/2001/REC-SVG-20010904/DTD/svg10.dtd">
<svg version="1.0" xmlns="http://www.w3.org/2000/svg"
 width="348.000000pt" height="348.000000pt" viewBox="0 0 348.000000 348.000000"
 preserveAspectRatio="xMidYMid meet">

<g transform="translate(0.000000,348.000000) scale(0.100000,-0.100000)"
fill="#ffffff" stroke="none">
<path d="M380 2347 c0 -1232 -2 -1184 56 -1298 41 -82 97 -133 370 -340 141
-107 408 -310 595 -451 l339 -257 582 440 c321 243 606 464 635 492 29 28 66
76 82 107 64 119 61 62 61 1307 l0 1133 -1360 0 -1360 0 0 -1133z m2638 -64
l-3 -1118 -27 -58 c-30 -63 -102 -145 -173 -196 l-45 -32 0 1125 c0 619 -3
1126 -7 1126 -5 0 -80 -75 -168 -167 l-160 -167 -5 -1090 -5 -1090 -120 -92
c-66 -51 -123 -93 -127 -94 -5 0 -8 472 -8 1048 l0 1048 -165 -166 -165 -166
0 -1011 0 -1011 -50 -37 -50 -37 -80 59 -79 58 -1 855 0 855 -167 -168 -168
-167 -5 -554 -5 -554 -122 91 -123 91 0 323 c0 178 -3 323 -7 323 -5 0 -87
-82 -185 -182 l-176 -183 -47 45 c-25 25 -61 74 -78 110 l-32 65 -3 1118 -2
1117 1280 0 1280 0 -2 -1117z"/>
<path d="M620 3316 l-13 -46 -51 0 -51 -1 38 -33 c38 -32 39 -33 28 -72 -16
-56 -15 -58 22 -30 42 32 43 32 91 0 34 -23 38 -24 32 -8 -23 60 -20 76 20
111 l39 33 -52 0 c-51 0 -52 1 -63 38 -18 56 -26 58 -40 8z"/>
<path d="M1600 3318 c-15 -42 -16 -43 -62 -46 -27 -2 -48 -6 -48 -10 0 -4 16
-18 36 -31 27 -19 34 -29 29 -45 -3 -12 -8 -34 -12 -50 l-6 -29 37 28 c41 31
36 31 103 -13 l23 -14 -15 47 c-13 46 -13 47 13 71 15 13 30 24 35 24 4 0 7 5
7 10 0 6 -20 10 -45 10 -41 0 -47 3 -55 28 -24 65 -24 65 -40 20z"/>
<path d="M2578 3319 c-14 -43 -16 -44 -61 -47 -26 -2 -47 -7 -47 -13 0 -5 3
-9 8 -9 4 -1 19 -11 35 -23 27 -23 27 -23 13 -70 -15 -50 -15 -50 38 -14 30
21 28 22 93 -21 l23 -14 -15 42 c-20 56 -20 54 20 81 19 13 35 27 35 31 0 4
-21 8 -46 10 -45 3 -47 5 -64 47 l-17 45 -15 -45z"/>
<path d="M820 2353 l0 -688 234 240 233 240 -199 3 c-180 2 -227 9 -182 26 9
3 35 6 58 6 23 0 47 5 54 12 9 9 12 77 12 243 l0 230 -60 18 c-135 39 -180
156 -94 242 96 96 319 80 385 -28 40 -66 12 -150 -64 -192 -28 -17 -34 -24
-25 -33 7 -7 24 -12 39 -12 15 0 32 -7 39 -15 7 -8 19 -15 26 -15 18 0 18 -9
-1 -52 -17 -42 -11 -96 19 -153 23 -45 46 -105 46 -121 0 -6 -11 -16 -25 -22
-18 -9 -25 -19 -25 -41 0 -36 9 -61 22 -61 6 0 137 129 291 288 155 158 344
351 421 430 l140 142 -672 0 -672 0 0 -687z"/>
<path d="M1015 2929 c-10 -15 3 -25 16 -12 7 7 7 13 1 17 -6 3 -14 1 -17 -5z"/>
<path d="M912 2879 c2 -6 8 -10 13 -10 5 0 11 4 13 10 2 6 -4 11 -13 11 -9 0
-15 -5 -13 -11z"/>
<path d="M1190 2880 c0 -5 7 -10 15 -10 8 0 15 5 15 10 0 6 -7 10 -15 10 -8 0
-15 -4 -15 -10z"/>
<path d="M1070 2850 c0 -5 7 -10 15 -10 8 0 15 5 15 10 0 6 -7 10 -15 10 -8 0
-15 -4 -15 -10z"/>
<path d="M997 2784 c-8 -8 1 -24 14 -24 5 0 9 7 9 15 0 15 -12 20 -23 9z"/>
<path d="M1140 2774 c0 -17 22 -14 28 4 2 7 -3 12 -12 12 -9 0 -16 -7 -16 -16z"/>
<path d="M1938 2685 c-3 -6 -11 -27 -17 -47 -12 -37 -13 -38 -64 -38 l-51 0
41 -31 40 -31 -13 -44 c-7 -24 -11 -44 -8 -44 3 0 21 11 41 24 l36 25 34 -26
c18 -14 36 -23 39 -20 3 3 0 23 -6 43 -13 37 -12 38 26 71 l39 33 -51 0 -50 0
-15 47 c-8 26 -17 43 -21 38z"/>
<path d="M1113 2673 c-19 -4 -23 -11 -23 -44 0 -46 24 -99 45 -99 19 0 31 81
16 109 -7 12 -9 26 -6 31 3 6 3 9 -2 9 -4 -1 -18 -4 -30 -6z"/>
<path d="M1090 2311 c0 -70 4 -111 12 -119 7 -7 36 -12 65 -12 60 0 68 13 33
57 -11 14 -20 40 -20 58 0 18 -6 38 -14 44 -8 6 -19 25 -26 40 -6 16 -20 31
-31 34 -18 5 -19 -1 -19 -102z"/>
<path d="M620 2316 l-13 -46 -51 0 -51 -1 38 -33 c38 -32 39 -33 28 -72 -16
-57 -14 -59 25 -29 38 29 47 28 104 -12 23 -18 24 -17 16 2 -23 62 -21 77 20
112 l39 33 -52 0 c-51 0 -52 1 -63 38 -18 56 -26 58 -40 8z"/>
<path d="M1270 1978 c-8 -24 -21 -44 -27 -44 -7 -1 -30 -2 -50 -3 l-38 -1 38
-27 c39 -27 44 -44 27 -89 -6 -15 -9 -28 -7 -30 2 -2 20 8 41 22 l38 26 36
-26 c20 -14 38 -24 40 -21 2 2 -1 18 -7 36 -16 47 -14 53 26 82 l38 27 -38 1
c-20 1 -43 2 -49 3 -7 0 -20 20 -28 44 -8 23 -17 42 -20 42 -3 0 -12 -19 -20
-42z"/>
<path d="M620 1316 l-13 -46 -51 0 -51 -1 38 -33 c38 -32 39 -33 28 -72 -16
-56 -15 -57 28 -28 l40 26 37 -26 c21 -14 39 -24 40 -23 1 1 -3 22 -9 46 l-12
43 40 34 40 34 -52 0 c-51 0 -52 1 -63 38 -18 56 -26 58 -40 8z"/>
</g>
</svg>
