<?xml version="1.0" standalone="no"?>
<!DOCTYPE svg PUBLIC "-//W3C//DTD SVG 20010904//EN"
 "http://www.w3.org/TR/2001/REC-SVG-20010904/DTD/svg10.dtd">
<svg version="1.0" xmlns="http://www.w3.org/2000/svg"
 width="431.000000pt" height="367.000000pt" viewBox="0 0 431.000000 367.000000"
 preserveAspectRatio="xMidYMid meet">

<g transform="translate(0.000000,367.000000) scale(0.100000,-0.100000)"
fill="#000000" stroke="none">
<path d="M3273 3041 c-53 -25 -174 -106 -255 -173 -35 -28 -170 -157 -300
-286 l-237 -235 -128 44 c-70 23 -130 44 -132 45 -1 2 4 13 13 26 9 12 16 29
16 38 0 22 -92 110 -115 110 -11 0 -42 -23 -70 -50 l-51 -50 -134 47 c-74 25
-137 48 -139 50 -2 1 3 11 12 21 10 10 17 27 17 38 0 23 -89 114 -111 114 -8
0 -37 -22 -64 -50 -27 -27 -54 -50 -61 -50 -6 0 -141 45 -299 101 -158 55
-302 103 -319 106 -28 4 -39 -4 -116 -81 -66 -67 -83 -90 -75 -101 9 -13 251
-177 1070 -725 94 -62 174 -117 179 -122 6 -4 -74 -93 -190 -210 -200 -203
-294 -314 -373 -440 -23 -36 -47 -68 -54 -71 -7 -2 -126 13 -266 35 l-254 39
-58 -57 c-33 -32 -59 -62 -59 -66 0 -5 101 -59 225 -120 124 -62 225 -116 225
-121 0 -4 -11 -25 -25 -47 -29 -46 -33 -80 -9 -80 9 0 38 12 64 27 27 15 51
25 53 23 3 -3 55 -105 116 -228 61 -122 115 -222 119 -222 5 0 34 27 66 61 48
51 56 65 52 87 -6 27 -76 476 -76 485 0 3 44 36 98 73 147 102 220 165 422
368 102 102 189 186 195 186 5 -1 41 -47 78 -103 38 -56 224 -334 414 -617
190 -283 352 -522 359 -530 12 -13 26 -3 104 75 50 49 90 95 90 102 0 6 -47
147 -105 312 -58 165 -105 307 -105 314 0 7 23 35 50 62 28 27 50 55 50 63 0
7 -21 35 -46 62 -49 52 -81 63 -104 35 -7 -8 -16 -15 -20 -15 -4 0 -29 63 -55
141 l-48 141 52 52 c28 28 51 58 51 67 0 22 -93 109 -117 109 -11 0 -26 -7
-33 -15 -7 -8 -15 -15 -19 -15 -4 0 -27 61 -51 135 l-44 135 255 257 c141 142
284 296 319 342 76 100 140 221 140 261 0 94 -87 136 -187 91z"/>
</g>
</svg>
