<?xml version="1.0" standalone="no"?>
<!DOCTYPE svg PUBLIC "-//W3C//DTD SVG 20010904//EN"
 "http://www.w3.org/TR/2001/REC-SVG-20010904/DTD/svg10.dtd">
<svg version="1.0" xmlns="http://www.w3.org/2000/svg"
 width="192.000000pt" height="192.000000pt" viewBox="0 0 192.000000 192.000000"
 preserveAspectRatio="xMidYMid meet">
<g transform="translate(0.000000,192.000000) scale(0.100000,-0.100000)"
fill="#ffffff" stroke="none">
<path d="M295 1479 c-137 -198 -258 -377 -267 -397 -21 -46 -23 -132 -4 -177
8 -19 50 -80 92 -135 l77 -100 294 151 c162 83 296 149 298 147 2 -2 -59 -94
-136 -203 -163 -231 -189 -279 -189 -350 0 -69 25 -118 125 -245 l86 -110 337
171 c185 95 341 176 347 180 5 5 -90 9 -215 9 -212 0 -222 1 -208 18 9 9 86
118 173 242 87 124 290 412 450 640 160 228 308 439 329 468 l38 52 -259 0
-259 0 -299 -426 c-164 -234 -303 -428 -310 -430 -6 -3 -94 -3 -197 -2 l-186
3 205 290 c236 335 375 533 386 552 7 11 -35 13 -225 13 l-233 0 -250 -361z"/>
</g>
</svg>